<svg width="61" height="25" viewBox="0 0 61 25" fill="none" xmlns="http://www.w3.org/2000/svg">
<g clip-path="url(#clip0_703_824)">
<path d="M11.1321 3.22312C10.4185 4.06755 9.27674 4.73359 8.13497 4.63844C7.99225 3.49667 8.55124 2.28354 9.20538 1.53425C9.91899 0.666032 11.1678 0.0475737 12.1787 0C12.2977 1.18934 11.8338 2.3549 11.1321 3.22312ZM12.1668 4.86442C10.5137 4.76927 9.09834 5.804 8.31337 5.804C7.51651 5.804 6.31527 4.91199 5.007 4.93578C3.30623 4.95956 1.72441 5.92293 0.856187 7.45718C-0.927828 10.5257 0.392343 15.069 2.11689 17.5666C2.96133 18.8035 3.97227 20.1594 5.30433 20.1118C6.56504 20.0642 7.06456 19.2912 8.58692 19.2912C10.1212 19.2912 10.5612 20.1118 11.8933 20.088C13.2729 20.0642 14.1412 18.8511 14.9856 17.6142C15.949 16.2108 16.3414 14.843 16.3652 14.7716C16.3414 14.7479 13.7011 13.7369 13.6773 10.6922C13.6535 8.147 15.7587 6.93387 15.8538 6.86251C14.6645 5.10228 12.8091 4.91199 12.1668 4.86442ZM21.7173 1.41532V19.9572H24.5955V13.618H28.5798C32.2192 13.618 34.7763 11.1204 34.7763 7.50476C34.7763 3.88915 32.2668 1.41532 28.6749 1.41532H21.7173ZM24.5955 3.84158H27.9138C30.4114 3.84158 31.8386 5.17364 31.8386 7.51665C31.8386 9.85966 30.4114 11.2036 27.9019 11.2036H24.5955V3.84158ZM40.0332 20.0999C41.841 20.0999 43.5179 19.1841 44.2791 17.7331H44.3386V19.9572H47.0027V10.7279C47.0027 8.05186 44.8619 6.32731 41.5674 6.32731C38.5108 6.32731 36.2511 8.07564 36.1678 10.4781H38.7606C38.9746 9.33635 40.0332 8.58706 41.4842 8.58706C43.2444 8.58706 44.2315 9.40771 44.2315 10.9182V11.941L40.6397 12.1551C37.2977 12.3573 35.4899 13.725 35.4899 16.1037C35.4899 18.5062 37.3571 20.0999 40.0332 20.0999ZM40.8062 17.8996C39.272 17.8996 38.2967 17.1622 38.2967 16.0324C38.2967 14.8668 39.2363 14.1889 41.0322 14.0818L44.2315 13.8796V14.9263C44.2315 16.6627 42.7568 17.8996 40.8062 17.8996ZM50.5589 25C53.3657 25 54.6859 23.9296 55.8395 20.6827L60.8942 6.50571H57.9685L54.5788 17.4596H54.5194L51.1297 6.50571H48.1207L52.997 20.0048L52.7354 20.8254C52.2953 22.2169 51.5817 22.7521 50.3091 22.7521C50.0831 22.7521 49.6431 22.7284 49.4647 22.7046V24.9286C49.6312 24.9762 50.3448 25 50.5589 25Z" fill="black"/>
</g>
<defs>
<clipPath id="clip0_703_824">
<rect width="60.8944" height="25" fill="white"/>
</clipPath>
</defs>
</svg>
