<svg width="120" height="25" viewBox="0 0 120 25" fill="none" xmlns="http://www.w3.org/2000/svg">
<path d="M24.6229 15.5238C22.9533 22.2202 16.171 26.2955 9.47387 24.6256C2.77944 22.9561 -1.29589 16.1734 0.374393 9.47743C2.04312 2.78026 8.82544 -1.29545 15.5206 0.374055C22.2174 2.04356 26.2924 8.82705 24.6229 15.5238Z" fill="#F7931A"/>
<path d="M18.0097 10.719C18.2585 9.05579 16.9921 8.16166 15.2605 7.56519L15.8222 5.3121L14.4507 4.9703L13.9039 7.16402C13.5433 7.07418 13.173 6.98942 12.8051 6.90543L13.3558 4.69726L11.9852 4.35547L11.4231 6.60777C11.1246 6.53981 10.8317 6.47263 10.5473 6.40193L10.5489 6.39489L8.65748 5.92263L8.29265 7.38745C8.29265 7.38745 9.31021 7.62065 9.28872 7.6351C9.84418 7.77377 9.94457 8.14134 9.92777 8.43274L9.28794 10.9995C9.32622 11.0093 9.37583 11.0233 9.43052 11.0452C9.38482 11.0339 9.33599 11.0214 9.2856 11.0093L8.38873 14.6049C8.32076 14.7737 8.14851 15.0268 7.76023 14.9307C7.7739 14.9506 6.76337 14.6819 6.76337 14.6819L6.08252 16.2518L7.86726 16.6967C8.19928 16.7799 8.52467 16.867 8.84497 16.949L8.27741 19.2279L9.64731 19.5697L10.2094 17.315C10.5836 17.4166 10.9469 17.5103 11.3024 17.5986L10.7422 19.8427L12.1137 20.1845L12.6812 17.9099C15.0199 18.3525 16.7784 18.174 17.5187 16.0588C18.1151 14.3557 17.489 13.3733 16.2585 12.7327C17.1546 12.526 17.8296 11.9366 18.0097 10.719ZM14.8761 15.1131C14.4523 16.8162 11.5848 15.8955 10.6551 15.6647L11.4082 12.6456C12.3379 12.8776 15.3191 13.337 14.8761 15.1131ZM15.3003 10.6944C14.9136 12.2436 12.5269 11.4565 11.7527 11.2636L12.4355 8.52533C13.2098 8.7183 15.7031 9.07844 15.3003 10.6944Z" fill="white"/>
<path d="M36.6305 7.56316C37.6441 7.56316 38.5199 7.74479 39.2558 8.10143C39.9953 8.46158 40.6054 8.94673 41.0949 9.55688C41.5777 10.1702 41.937 10.8869 42.1691 11.7084C42.3995 12.5322 42.5152 13.4178 42.5152 14.3658C42.5152 15.822 42.2484 17.1978 41.7097 18.4946C41.171 19.7934 40.4402 20.92 39.5105 21.8809C38.5816 22.8407 37.4848 23.5973 36.22 24.1563C34.9571 24.7156 33.5841 24.9953 32.1099 24.9953C31.9192 24.9953 31.5841 24.9898 31.1106 24.9801C30.6372 24.9703 30.0931 24.9215 29.4837 24.8391C28.8705 24.7535 28.222 24.627 27.5373 24.4574C26.8529 24.291 26.2029 24.0578 25.5908 23.7617L31.0642 0.763663L35.9664 0.00390625L34.0067 8.16511C34.4262 7.97605 34.8489 7.82956 35.2707 7.72292C35.693 7.61784 36.1461 7.56316 36.6305 7.56316ZM32.5184 21.1063C33.2567 21.1063 33.9524 20.9247 34.6059 20.568C35.2614 20.211 35.827 19.729 36.3008 19.1286C36.7746 18.5255 37.1496 17.8462 37.4231 17.0872C37.6965 16.3283 37.8348 15.5365 37.8348 14.7127C37.8348 13.7006 37.6656 12.9111 37.3285 12.3404C36.9914 11.7721 36.3676 11.4861 35.4618 11.4861C35.1649 11.4861 34.7825 11.5428 34.3083 11.644C33.8325 11.7514 33.4067 11.9744 33.0251 12.31L30.9384 20.977C31.0642 20.9993 31.1755 21.0204 31.2704 21.0403C31.3634 21.0618 31.4661 21.077 31.5685 21.0876C31.6767 21.0997 31.8005 21.1059 31.9501 21.1059C32.0997 21.1059 32.2868 21.1063 32.5184 21.1063Z" fill="#4D4D4D"/>
<path d="M47.5989 24.5551H42.9165L46.8707 7.9159H51.5851L47.5989 24.5551ZM49.8773 5.88859C49.2238 5.88859 48.6313 5.69406 48.1055 5.30422C47.5754 4.91672 47.3129 4.32025 47.3129 3.51636C47.3129 3.07418 47.4028 2.65933 47.5809 2.26793C47.7617 1.87731 47.9981 1.541 48.2942 1.25506C48.5899 0.971474 48.9324 0.744911 49.3215 0.574211C49.7129 0.406244 50.1293 0.322266 50.573 0.322266C51.2261 0.322266 51.8156 0.516795 52.3433 0.906632C52.8691 1.29842 53.1335 1.8949 53.1335 2.69449C53.1335 3.13824 53.0441 3.55463 52.8644 3.94525C52.6859 4.33587 52.4496 4.67219 52.1535 4.95812C51.8601 5.2421 51.5144 5.46788 51.1261 5.63702C50.7344 5.80772 50.3195 5.88859 49.8773 5.88859Z" fill="#4D4D4D"/>
<path d="M55.6885 3.77001L60.5928 3.01025L59.3885 7.91487H64.6407L63.6923 11.7734H58.4717L57.0811 17.5936C56.953 18.0788 56.8803 18.5319 56.86 18.953C56.837 19.376 56.8905 19.7393 57.017 20.0452C57.1428 20.3518 57.369 20.5881 57.6971 20.7553C58.0237 20.9252 58.4912 21.0108 59.1045 21.0108C59.6096 21.0108 60.1017 20.9627 60.5775 20.8674C61.0506 20.7736 61.5298 20.6432 62.015 20.4725L62.3642 24.0802C61.7314 24.3123 61.0463 24.5119 60.308 24.6798C59.5686 24.8502 58.6932 24.9322 57.6815 24.9322C56.2268 24.9322 55.0991 24.7162 54.2956 24.2861C53.4933 23.8529 52.9261 23.2611 52.5866 22.5119C52.2519 21.7654 52.1023 20.9049 52.1441 19.9354C52.1874 18.9635 52.3339 17.9421 52.5866 16.8663L55.6885 3.77001Z" fill="#4D4D4D"/>
<path d="M64.4346 17.9104C64.4346 16.4772 64.6666 15.1257 65.1303 13.8604C65.5931 12.5941 66.2599 11.4867 67.1252 10.5363C67.9872 9.59059 69.0376 8.84138 70.2739 8.29139C71.5044 7.74452 72.8821 7.46875 74.4004 7.46875C75.3508 7.46875 76.1996 7.5586 76.9465 7.73867C77.6965 7.92031 78.375 8.15507 78.9886 8.4496L77.3738 12.1214C76.952 11.9503 76.5141 11.7995 76.0613 11.6628C75.6082 11.5234 75.0551 11.4562 74.4008 11.4562C72.838 11.4562 71.6024 11.9949 70.6829 13.0687C69.7669 14.1433 69.3056 15.5897 69.3056 17.4041C69.3056 18.4795 69.5376 19.349 70.0032 20.0143C70.4665 20.6795 71.3224 21.0103 72.5649 21.0103C73.1782 21.0103 73.77 20.9463 74.3368 20.8213C74.9078 20.6947 75.4121 20.5353 75.8563 20.3471L76.2059 24.1111C75.6137 24.3408 74.9606 24.5482 74.2442 24.7298C73.5262 24.9052 72.6715 24.9962 71.6805 24.9962C70.3724 24.9962 69.265 24.8048 68.3591 24.4279C67.4529 24.0451 66.7041 23.5369 66.1142 22.8931C65.5213 22.2478 65.0955 21.4943 64.8322 20.6295C64.5689 19.7654 64.4346 18.8576 64.4346 17.9104Z" fill="#4D4D4D"/>
<path d="M85.2353 24.9962C84.1178 24.9962 83.1471 24.8259 82.3237 24.4888C81.5026 24.1517 80.8225 23.6787 80.2846 23.0654C79.746 22.4552 79.3429 21.7322 79.0667 20.899C78.7905 20.0662 78.6577 19.144 78.6577 18.1334C78.6577 16.8659 78.8612 15.5987 79.2726 14.3351C79.6819 13.0687 80.2893 11.9308 81.0932 10.9195C81.8909 9.90661 82.8748 9.07849 84.0334 8.43279C85.1908 7.7914 86.522 7.46875 88.0173 7.46875C89.1146 7.46875 90.0802 7.63945 90.9149 7.97655C91.7458 8.31287 92.4302 8.78982 92.9712 9.39997C93.5063 10.0132 93.9129 10.7332 94.1864 11.5675C94.4618 12.3988 94.5977 13.3233 94.5977 14.3347C94.5977 15.5983 94.3969 16.8655 93.9985 18.133C93.5997 19.3943 93.0079 20.535 92.2266 21.5486C91.447 22.5599 90.472 23.3876 89.3009 24.0306C88.1314 24.6736 86.7752 24.9962 85.2353 24.9962ZM87.5756 11.4566C86.8814 11.4566 86.2677 11.6581 85.7424 12.0562C85.215 12.4589 84.7721 12.9651 84.415 13.5757C84.0541 14.189 83.7865 14.8577 83.6057 15.5846C83.4264 16.3131 83.3385 17.0018 83.3385 17.6561C83.3385 18.7119 83.5088 19.5342 83.8436 20.126C84.183 20.7146 84.7928 21.0107 85.6791 21.0107C86.3756 21.0107 86.9861 20.8107 87.5146 20.4084C88.0388 20.0088 88.4822 19.5022 88.8419 18.8904C89.2005 18.2803 89.4704 17.6096 89.6513 16.8815C89.8282 16.1553 89.9185 15.4628 89.9185 14.8097C89.9185 13.7565 89.7489 12.9323 89.4111 12.3413C89.0736 11.7527 88.4611 11.4566 87.5756 11.4566Z" fill="#4D4D4D"/>
<path d="M99.6999 24.5551H95.0137L98.9679 7.9159H103.685L99.6999 24.5551ZM101.975 5.88859C101.322 5.88859 100.73 5.69406 100.205 5.30422C99.6773 4.91672 99.4124 4.32025 99.4124 3.51636C99.4124 3.07418 99.5034 2.65933 99.682 2.26793C99.8605 1.87731 100.098 1.541 100.394 1.25506C100.689 0.971474 101.034 0.744911 101.423 0.574211C101.812 0.406244 102.228 0.322266 102.67 0.322266C103.325 0.322266 103.916 0.516795 104.443 0.906632C104.97 1.29842 105.236 1.8949 105.236 2.69449C105.236 3.13824 105.141 3.55463 104.964 3.94525C104.787 4.33587 104.549 4.67219 104.255 4.95812C103.958 5.2421 103.616 5.46788 103.227 5.63702C102.835 5.80772 102.419 5.88859 101.975 5.88859Z" fill="#4D4D4D"/>
<path d="M107.059 8.67245C107.414 8.56854 107.811 8.44355 108.243 8.30761C108.676 8.17168 109.16 8.04512 109.701 7.93106C110.236 7.81348 110.839 7.71817 111.503 7.64434C112.166 7.56895 112.923 7.53223 113.763 7.53223C116.232 7.53223 117.935 8.25137 118.874 9.68533C119.814 11.1193 119.976 13.0818 119.367 15.5692L117.213 24.5534H112.5L114.587 15.7583C114.714 15.2091 114.814 14.6782 114.888 14.1595C114.963 13.6454 114.959 13.1923 114.871 12.8001C114.788 12.4126 114.592 12.0954 114.288 11.8497C113.979 11.6079 113.512 11.4865 112.879 11.4865C112.268 11.4865 111.647 11.5521 111.013 11.6787L107.944 24.5531H103.229L107.059 8.67245Z" fill="#4D4D4D"/>
</svg>
