<svg width="63" height="25" viewBox="0 0 63 25" fill="none" xmlns="http://www.w3.org/2000/svg">
<g clip-path="url(#clip0_703_815)">
<path d="M29.7755 12.2135V19.5418H27.4507V1.44409H33.6166C34.3526 1.42871 35.0843 1.55925 35.7696 1.82815C36.4549 2.09706 37.0801 2.49902 37.6092 3.01083C38.1437 3.49157 38.569 4.08114 38.8567 4.73992C39.1444 5.39871 39.2877 6.11144 39.2771 6.83021C39.2924 7.55283 39.1512 8.27022 38.8634 8.9332C38.5755 9.59618 38.1477 10.1891 37.6092 10.6713C36.531 11.6994 35.2002 12.213 33.6166 12.212H29.7755V12.2135ZM29.7755 3.67218V9.98969H33.6743C34.1018 10.0024 34.5271 9.92568 34.9232 9.76456C35.3193 9.60343 35.6774 9.36141 35.9746 9.05398C36.2703 8.76653 36.5053 8.42272 36.6658 8.04287C36.8263 7.66302 36.9089 7.25485 36.9089 6.84249C36.9089 6.43013 36.8263 6.02196 36.6658 5.64211C36.5053 5.26226 36.2703 4.91845 35.9746 4.631C35.6811 4.31708 35.3243 4.06913 34.9277 3.90358C34.5311 3.73803 34.1039 3.65866 33.6743 3.67074H29.7755V3.67218Z" fill="#5F6368"/>
<path d="M44.634 6.75488C46.3524 6.75488 47.7088 7.21408 48.7032 8.13246C49.6976 9.05085 50.1944 10.31 50.1934 11.91V19.5415H47.9697V17.8232H47.8686C46.9059 19.2383 45.6256 19.9458 44.0275 19.9458C42.6634 19.9458 41.5222 19.5415 40.6038 18.7329C40.1631 18.3617 39.8107 17.8969 39.5724 17.3723C39.3341 16.8477 39.2158 16.2766 39.2262 15.7005C39.2262 14.4192 39.7104 13.4002 40.6789 12.6435C41.6473 11.8869 42.9402 11.5076 44.5575 11.5056C45.9379 11.5056 47.0749 11.7583 47.9682 12.2637V11.7324C47.9708 11.3396 47.886 10.9512 47.7199 10.5953C47.5539 10.2394 47.3106 9.92491 47.0079 9.67465C46.3932 9.11998 45.5919 8.81733 44.764 8.82703C43.4653 8.82703 42.4377 9.37478 41.681 10.4703L39.6334 9.18081C40.7597 7.56352 42.4266 6.75488 44.634 6.75488ZM41.6261 15.751C41.6246 16.0469 41.6938 16.3389 41.8279 16.6026C41.962 16.8663 42.1572 17.0942 42.3972 17.2672C42.9114 17.6717 43.5496 17.8859 44.2037 17.8737C45.1847 17.8721 46.1251 17.4816 46.8188 16.7878C47.5889 16.0629 47.974 15.2124 47.974 14.2363C47.2491 13.6587 46.2383 13.3699 44.9416 13.3699C43.9972 13.3699 43.2097 13.5975 42.5792 14.0529C41.9424 14.5149 41.6261 15.0767 41.6261 15.751Z" fill="#5F6368"/>
<path d="M62.9584 7.15918L55.1955 24.9998H52.7955L55.6763 18.7574L50.5718 7.15918H53.0988L56.7882 16.0542H56.8387L60.4271 7.15918H62.9584Z" fill="#5F6368"/>
<path d="M20.3808 10.6335C20.3817 9.92505 20.3218 9.21779 20.2017 8.51953H10.397V12.5237H16.0127C15.8978 13.1633 15.6546 13.7729 15.2977 14.3159C14.9408 14.8589 14.4777 15.324 13.9362 15.6832V18.2824H17.2877C19.2501 16.4731 20.3808 13.7974 20.3808 10.6335Z" fill="#4285F4"/>
<path d="M10.3967 20.7937C13.2024 20.7937 15.5648 19.8724 17.2875 18.284L13.9359 15.6848C13.0031 16.3173 11.8017 16.6783 10.3967 16.6783C7.68485 16.6783 5.38311 14.8502 4.56003 12.3867H1.10742V15.0653C1.97276 16.7873 3.29967 18.2348 4.94001 19.2464C6.58034 20.2579 8.46954 20.7936 10.3967 20.7937Z" fill="#34A853"/>
<path d="M4.56017 12.3868C4.12504 11.0959 4.12504 9.69801 4.56017 8.40714V5.72852H1.10756C0.379608 7.17707 0.000488281 8.77579 0.000488281 10.397C0.000488281 12.0182 0.379608 13.6169 1.10756 15.0654L4.56017 12.3868Z" fill="#FBBC04"/>
<path d="M10.3967 4.1156C11.8794 4.09138 13.312 4.65158 14.385 5.67512L17.3524 2.7077C15.4708 0.940349 12.978 -0.0299556 10.3967 0.000193847C8.46954 0.000281678 6.58034 0.535997 4.94001 1.54753C3.29967 2.55907 1.97276 4.00661 1.10742 5.72855L4.56003 8.40717C5.38311 5.9437 7.68485 4.1156 10.3967 4.1156Z" fill="#EA4335"/>
</g>
<defs>
<clipPath id="clip0_703_815">
<rect width="62.9541" height="25" fill="white"/>
</clipPath>
</defs>
</svg>
