<svg width="49" height="33" viewBox="0 0 49 33" fill="none" xmlns="http://www.w3.org/2000/svg">
<g clip-path="url(#clip0_703_806)" filter="url(#filter0_d_703_806)">
<path d="M29.5479 2.66211H18.6587V22.2256H29.5479V2.66211Z" fill="#FF5A00"/>
<path d="M19.3834 12.4436C19.3834 8.46891 21.2519 4.9412 24.1192 2.66189C22.009 1.00274 19.3471 0 16.4436 0C9.5654 0 4 5.5654 4 12.4436C4 19.3218 9.5654 24.8872 16.4436 24.8872C19.3471 24.8872 22.009 23.8845 24.1192 22.2254C21.2479 19.9783 19.3834 16.4183 19.3834 12.4436Z" fill="#EB001B"/>
<path d="M44.2383 12.4436C44.2383 19.3218 38.6729 24.8872 31.7947 24.8872C28.8912 24.8872 26.2293 23.8845 24.1191 22.2254C27.0227 19.942 28.855 16.4183 28.855 12.4436C28.855 8.46891 26.9864 4.9412 24.1191 2.66189C26.2253 1.00274 28.8872 0 31.7907 0C38.6729 0 44.2383 5.60164 44.2383 12.4436Z" fill="#F79E1B"/>
</g>
<defs>
<filter id="filter0_d_703_806" x="0" y="0" width="48.625" height="33" filterUnits="userSpaceOnUse" color-interpolation-filters="sRGB">
<feFlood flood-opacity="0" result="BackgroundImageFix"/>
<feColorMatrix in="SourceAlpha" type="matrix" values="0 0 0 0 0 0 0 0 0 0 0 0 0 0 0 0 0 0 127 0" result="hardAlpha"/>
<feOffset dy="4"/>
<feGaussianBlur stdDeviation="2"/>
<feComposite in2="hardAlpha" operator="out"/>
<feColorMatrix type="matrix" values="0 0 0 0 0 0 0 0 0 0 0 0 0 0 0 0 0 0 0.25 0"/>
<feBlend mode="normal" in2="BackgroundImageFix" result="effect1_dropShadow_703_806"/>
<feBlend mode="normal" in="SourceGraphic" in2="effect1_dropShadow_703_806" result="shape"/>
</filter>
<clipPath id="clip0_703_806">
<rect width="40.625" height="25" fill="white" transform="translate(4)"/>
</clipPath>
</defs>
</svg>
