<svg width="94" height="25" viewBox="0 0 94 25" fill="none" xmlns="http://www.w3.org/2000/svg">
<g clip-path="url(#clip0_703_794)">
<path d="M35.0085 5.11279H29.8274C29.4728 5.11279 29.1713 5.37037 29.116 5.72037L27.0206 19.006C26.9789 19.2681 27.1819 19.5045 27.4478 19.5045H29.9213C30.2759 19.5045 30.5774 19.2469 30.6327 18.8961L31.1978 15.3128C31.2524 14.962 31.5547 14.7045 31.9085 14.7045H33.5486C36.9615 14.7045 38.9312 13.0529 39.4456 9.78022C39.6774 8.3484 39.4554 7.2234 38.785 6.43552C38.0486 5.57037 36.7425 5.11279 35.0085 5.11279ZM35.6062 9.96507C35.3228 11.8242 33.9024 11.8242 32.5289 11.8242H31.7471L32.2956 8.35219C32.3282 8.14234 32.51 7.98779 32.7221 7.98779H33.0804C34.016 7.98779 34.8986 7.98779 35.3547 8.52113C35.6266 8.83931 35.71 9.31204 35.6062 9.96507Z" fill="#253B80"/>
<path d="M50.4956 9.90521H48.0145C47.8031 9.90521 47.6206 10.0598 47.588 10.2696L47.4781 10.9635L47.3047 10.712C46.7675 9.93248 45.5698 9.67188 44.3744 9.67188C41.6327 9.67188 39.291 11.7484 38.835 14.6613C38.5978 16.1143 38.935 17.5037 39.7592 18.4726C40.5153 19.3635 41.5971 19.7348 42.8842 19.7348C45.0933 19.7348 46.3183 18.3143 46.3183 18.3143L46.2077 19.0037C46.166 19.2673 46.3691 19.5037 46.6334 19.5037H48.8683C49.2236 19.5037 49.5236 19.2461 49.5797 18.8954L50.9206 10.4037C50.963 10.1423 50.7607 9.90521 50.4956 9.90521ZM47.0372 14.734C46.7978 16.1514 45.6728 17.1029 44.238 17.1029C43.5175 17.1029 42.9418 16.8719 42.5721 16.434C42.2054 15.9991 42.066 15.3802 42.1827 14.6908C42.4062 13.2855 43.5501 12.3029 44.963 12.3029C45.6675 12.3029 46.2403 12.537 46.6175 12.9787C46.9956 13.4249 47.1456 14.0476 47.0372 14.734Z" fill="#253B80"/>
<path d="M63.709 9.90527H61.2158C60.9779 9.90527 60.7544 10.0235 60.6196 10.2212L57.1809 15.2863L55.7234 10.4189C55.6317 10.1144 55.3506 9.90527 55.0325 9.90527H52.5825C52.2847 9.90527 52.0779 10.1962 52.1726 10.4765L54.9188 18.5356L52.337 22.1803C52.134 22.4674 52.3385 22.8621 52.6893 22.8621H55.1794C55.4158 22.8621 55.637 22.7469 55.7711 22.553L64.0635 10.5833C64.262 10.2969 64.0582 9.90527 63.709 9.90527Z" fill="#253B80"/>
<path d="M71.9635 5.11279H66.7817C66.4279 5.11279 66.1264 5.37037 66.0711 5.72037L63.9757 19.006C63.934 19.2681 64.137 19.5045 64.4014 19.5045H67.0605C67.3075 19.5045 67.5188 19.3242 67.5575 19.0787L68.1522 15.3128C68.2067 14.962 68.509 14.7045 68.8628 14.7045H70.5022C73.9158 14.7045 75.8847 13.0529 76.3999 9.78022C76.6325 8.3484 76.409 7.2234 75.7385 6.43552C75.0029 5.57037 73.6976 5.11279 71.9635 5.11279ZM72.5613 9.96507C72.2787 11.8242 70.8582 11.8242 69.484 11.8242H68.7029L69.2522 8.35219C69.2847 8.14234 69.465 7.98779 69.6779 7.98779H70.0363C70.9711 7.98779 71.8544 7.98779 72.3105 8.52113C72.5825 8.83931 72.665 9.31204 72.5613 9.96507Z" fill="#179BD7"/>
<path d="M87.4498 9.90521H84.9703C84.7574 9.90521 84.5764 10.0598 84.5445 10.2696L84.4347 10.9635L84.2605 10.712C83.7233 9.93248 82.5264 9.67188 81.3309 9.67188C78.5892 9.67188 76.2483 11.7484 75.7923 14.6613C75.5559 16.1143 75.8915 17.5037 76.7158 18.4726C77.4733 19.3635 78.5536 19.7348 79.8408 19.7348C82.0498 19.7348 83.2748 18.3143 83.2748 18.3143L83.1642 19.0037C83.1226 19.2673 83.3256 19.5037 83.5915 19.5037H85.8256C86.1794 19.5037 86.4809 19.2461 86.5362 18.8954L87.8779 10.4037C87.9188 10.1423 87.7158 9.90521 87.4498 9.90521ZM83.9915 14.734C83.7536 16.1514 82.6271 17.1029 81.1923 17.1029C80.4733 17.1029 79.8961 16.8719 79.5264 16.434C79.1597 15.9991 79.0218 15.3802 79.137 14.6908C79.362 13.2855 80.5044 12.3029 81.9173 12.3029C82.6218 12.3029 83.1945 12.537 83.5718 12.9787C83.9514 13.4249 84.1014 14.0476 83.9915 14.734Z" fill="#179BD7"/>
<path d="M90.3751 5.47746L88.2486 19.0062C88.2069 19.2684 88.41 19.5047 88.6744 19.5047H90.8122C91.1675 19.5047 91.4691 19.2472 91.5236 18.8964L93.6206 5.61155C93.6622 5.34943 93.4592 5.1123 93.1948 5.1123H90.8009C90.5895 5.11306 90.4077 5.26761 90.3751 5.47746Z" fill="#179BD7"/>
<path d="M5.50447 22.0865L5.90068 19.5698L5.0181 19.5494H0.803711L3.7325 0.978909C3.74159 0.922849 3.77113 0.870576 3.81432 0.833455C3.8575 0.796333 3.9128 0.775879 3.97038 0.775879H11.0764C13.4355 0.775879 15.0636 1.26679 15.9136 2.23573C16.312 2.69027 16.5658 3.16527 16.6886 3.688C16.8173 4.23648 16.8196 4.89179 16.6939 5.69103L16.6848 5.74936V6.26149L17.0833 6.48724C17.4189 6.66527 17.6855 6.86906 17.8901 7.10239C18.231 7.49103 18.4514 7.98497 18.5446 8.57058C18.6408 9.17285 18.609 9.88951 18.4514 10.7009C18.2696 11.6342 17.9757 12.4471 17.5787 13.1122C17.2136 13.7251 16.7484 14.2335 16.1961 14.6274C15.6689 15.0016 15.0423 15.2857 14.334 15.4675C13.6476 15.6463 12.8651 15.7365 12.0067 15.7365H11.4537C11.0583 15.7365 10.6742 15.8789 10.3726 16.1342C10.0704 16.3948 9.87038 16.7509 9.80901 17.1403L9.76735 17.3668L9.06735 21.8024L9.03553 21.9653C9.02719 22.0168 9.0128 22.0425 8.99159 22.06C8.97265 22.0759 8.94538 22.0865 8.91886 22.0865H5.50447Z" fill="#253B80"/>
<path d="M17.4605 5.80811C17.4392 5.94371 17.415 6.08235 17.3877 6.22477C16.4506 11.0361 13.2446 12.6983 9.14986 12.6983H7.06501C6.56425 12.6983 6.14228 13.0619 6.06425 13.5558L4.99683 20.3255L4.69455 22.2445C4.6438 22.5687 4.8938 22.8611 5.22107 22.8611H8.9188C9.35667 22.8611 9.72864 22.543 9.79758 22.1111L9.83395 21.9233L10.5302 17.5051L10.5749 17.2626C10.643 16.8293 11.0158 16.5111 11.4536 16.5111H12.0067C15.5892 16.5111 18.3938 15.0566 19.2135 10.8475C19.5559 9.08917 19.3786 7.62098 18.4726 6.58841C18.1983 6.27704 17.8582 6.01871 17.4605 5.80811Z" fill="#179BD7"/>
<path d="M16.4804 5.41742C16.3372 5.37575 16.1895 5.33787 16.0379 5.30378C15.8857 5.27045 15.7296 5.2409 15.569 5.21515C15.0069 5.12424 14.391 5.08105 13.7311 5.08105H8.16142C8.0243 5.08105 7.894 5.11212 7.77733 5.16818C7.52051 5.29166 7.3296 5.53484 7.28339 5.83257L6.09854 13.3371L6.06445 13.5561C6.14248 13.0621 6.56445 12.6985 7.06521 12.6985H9.15006C13.2448 12.6985 16.4508 11.0356 17.3879 6.22499C17.416 6.08257 17.4395 5.94393 17.4607 5.80833C17.2235 5.68257 16.9667 5.57499 16.6902 5.48333C16.622 5.4606 16.5516 5.43863 16.4804 5.41742Z" fill="#222D65"/>
<path d="M7.28332 5.83258C7.32954 5.53485 7.52044 5.29167 7.77726 5.16894C7.89469 5.11288 8.02423 5.08182 8.16135 5.08182H13.7311C14.3909 5.08182 15.0068 5.125 15.5689 5.21591C15.7295 5.24167 15.8856 5.27121 16.0379 5.30455C16.1894 5.33864 16.3371 5.37652 16.4803 5.41818C16.5515 5.43939 16.622 5.46136 16.6909 5.48333C16.9674 5.575 17.2242 5.68333 17.4614 5.80833C17.7401 4.0303 17.4591 2.8197 16.4977 1.72349C15.4379 0.516667 13.525 0 11.0773 0H3.9712C3.4712 0 3.04469 0.363636 2.96742 0.858333L0.00756729 19.6197C-0.050766 19.9909 0.235598 20.3258 0.60984 20.3258H4.99696L6.09848 13.3371L7.28332 5.83258Z" fill="#253B80"/>
</g>
<defs>
<clipPath id="clip0_703_794">
<rect width="93.9394" height="25" fill="white"/>
</clipPath>
</defs>
</svg>
