<svg width="106" height="30" viewBox="0 0 106 30" fill="none" xmlns="http://www.w3.org/2000/svg">
<g clip-path="url(#clip0_703_765)">
<path d="M22.8078 5.682C22.7873 5.53298 22.6571 5.45031 22.5491 5.44131C22.4419 5.43231 20.3412 5.40039 20.3412 5.40039C20.3412 5.40039 18.5843 3.6943 18.4108 3.52075C18.2372 3.34719 17.8983 3.39959 17.7665 3.43888C17.7649 3.4397 17.4366 3.54121 16.884 3.71231C16.7915 3.41269 16.6556 3.04429 16.4615 2.67425C15.8361 1.48065 14.92 0.849467 13.8132 0.847834C13.8116 0.847834 13.8107 0.847834 13.8091 0.847834C13.7321 0.847834 13.656 0.855202 13.5791 0.861748C13.5463 0.822452 13.5136 0.783979 13.4792 0.746316C12.997 0.230565 12.3789 -0.020763 11.638 0.00134071C10.2087 0.0422736 8.78503 1.0746 7.63072 2.90839C6.81861 4.19859 6.20051 5.81956 6.02533 7.07454C4.38391 7.58292 3.23615 7.9382 3.21077 7.94641C2.38229 8.20672 2.3561 8.2321 2.24803 9.01313C2.1678 9.60334 0 26.3662 0 26.3662L18.1668 29.5082L26.0406 27.5508C26.0406 27.5508 22.8282 5.83102 22.8078 5.682ZM15.9745 3.99393C15.5561 4.12328 15.0805 4.27064 14.5647 4.43028C14.5541 3.70658 14.4681 2.69964 14.1308 1.8294C15.2156 2.03489 15.7493 3.26205 15.9745 3.99393ZM13.6142 4.72499C12.6622 5.01969 11.6233 5.34143 10.5811 5.664C10.8742 4.54161 11.4301 3.42415 12.1129 2.69145C12.3666 2.41884 12.7219 2.11511 13.1427 1.94156C13.5381 2.76676 13.6241 3.93499 13.6142 4.72499ZM11.6667 0.952618C12.0023 0.945251 12.2848 1.01893 12.5263 1.17775C12.1399 1.37832 11.7665 1.66649 11.4162 2.04225C10.5083 3.01646 9.81241 4.52851 9.53488 5.98736C8.66956 6.25505 7.82307 6.51787 7.0437 6.75856C7.53575 4.4622 9.46038 1.01647 11.6667 0.952618Z" fill="#95BF47"/>
<path d="M22.5497 5.44239C22.4425 5.43339 20.3418 5.40147 20.3418 5.40147C20.3418 5.40147 18.585 3.69538 18.4115 3.52182C18.3468 3.45715 18.2592 3.42358 18.1675 3.40967L18.1683 29.5077L26.0414 27.5511C26.0414 27.5511 22.8289 5.83209 22.8085 5.68308C22.788 5.53406 22.657 5.45139 22.5497 5.44239Z" fill="#5E8E3E"/>
<path d="M13.8033 9.49057L12.8889 12.9117C12.8889 12.9117 11.8689 12.4475 10.6597 12.5237C8.88646 12.6359 8.86762 13.7541 8.88567 14.0349C8.98226 15.565 13.0076 15.899 13.2336 19.4831C13.4112 22.3025 11.7378 24.2313 9.32691 24.3836C6.43295 24.5661 4.83984 22.8592 4.83984 22.8592L5.45303 20.251C5.45303 20.251 7.05675 21.461 8.34041 21.3799C9.17873 21.3267 9.47834 20.6448 9.44805 20.1626C9.322 18.1667 6.04408 18.2846 5.83698 15.005C5.66259 12.2454 7.47513 9.44882 11.4742 9.19667C13.0149 9.09762 13.8033 9.49057 13.8033 9.49057Z" fill="white"/>
<path d="M36.4093 16.6541C35.504 16.1629 35.0387 15.7488 35.0387 15.1796C35.0387 14.4553 35.685 13.99 36.6943 13.99C37.8693 13.99 38.9183 14.4813 38.9183 14.4813L39.7457 11.9463C39.7457 11.9463 38.9849 11.3511 36.7455 11.3511C33.6291 11.3511 31.4692 13.1358 31.4692 15.6448C31.4692 17.0674 32.4777 18.1538 33.8231 18.9293C34.9096 19.5496 35.2977 19.9897 35.2977 20.6361C35.2977 21.3084 34.7545 21.8516 33.746 21.8516C32.243 21.8516 30.8237 21.0754 30.8237 21.0754L29.9443 23.6104C29.9443 23.6104 31.2557 24.4897 33.4618 24.4897C36.6692 24.4897 38.9711 22.912 38.9711 20.0669C38.9703 18.542 37.8067 17.4555 36.4093 16.6541Z" fill="black"/>
<path d="M49.1865 11.3262C47.6087 11.3262 46.3672 12.0764 45.4107 13.214L45.3587 13.188L46.7293 6.02393H43.1599L39.6943 24.2578H43.2638L44.4534 18.025C44.9186 15.6711 46.1342 14.2233 47.2726 14.2233C48.074 14.2233 48.385 14.7665 48.385 15.5428C48.385 16.034 48.333 16.6292 48.2299 17.1205L46.8852 24.2586H50.4549L51.8511 16.8874C52.0065 16.1112 52.1103 15.1807 52.1103 14.5595C52.1088 12.5417 51.0485 11.3262 49.1865 11.3262Z" fill="black"/>
<path d="M60.1786 11.3262C55.8846 11.3262 53.0405 15.2059 53.0405 19.5248C53.0405 22.292 54.7471 24.516 57.9546 24.516C62.1704 24.516 65.0154 20.7403 65.0154 16.3174C65.0154 13.7573 63.515 11.3262 60.1786 11.3262ZM58.4199 21.7756C57.2041 21.7756 56.6868 20.7411 56.6868 19.4476C56.6868 17.4047 57.7476 14.0683 59.6872 14.0683C60.9546 14.0683 61.3677 15.1547 61.3677 16.2151C61.3677 18.4132 60.3084 21.7756 58.4199 21.7756Z" fill="black"/>
<path d="M74.1452 11.3262C71.7359 11.3262 70.3687 13.4471 70.3687 13.4471H70.3175L70.5246 11.5332H67.3692C67.2142 12.8267 66.929 14.7917 66.6452 16.2663L64.1621 29.327H67.7316L68.7138 24.0507H68.7919C68.7919 24.0507 69.5242 24.516 70.887 24.516C75.0767 24.516 77.818 20.2231 77.818 15.8774C77.818 13.4731 76.7572 11.3262 74.1452 11.3262ZM70.7311 21.8267C69.8046 21.8267 69.2562 21.3095 69.2562 21.3095L69.8513 17.9731C70.2654 15.7491 71.429 14.2745 72.6708 14.2745C73.7572 14.2745 74.0931 15.283 74.0931 16.2403C74.0931 18.5423 72.7224 21.8267 70.7311 21.8267Z" fill="black"/>
<path d="M82.9131 6.20508C81.7755 6.20508 80.8701 7.11044 80.8701 8.274C80.8701 9.33447 81.5424 10.0588 82.5511 10.0588H82.6027C83.7152 10.0588 84.6718 9.30845 84.6978 7.98983C84.6978 6.95532 83.9995 6.20508 82.9131 6.20508Z" fill="black"/>
<path d="M77.9219 24.2575H81.4904L83.9224 11.6108H80.3268L77.9219 24.2575Z" fill="black"/>
<path d="M93.0006 11.5851H90.5175L90.6464 10.9899C90.8534 9.77436 91.5778 8.68792 92.7675 8.68792C93.4024 8.68792 93.9051 8.869 93.9051 8.869L94.6034 6.07581C94.6034 6.07581 93.9828 5.76562 92.6632 5.76562C91.3959 5.76562 90.1295 6.12774 89.1719 6.95515C87.9562 7.98966 87.3872 9.48936 87.1029 10.9899L87.0001 11.5851H85.3442L84.8269 14.2752H86.4828L84.5947 24.2585H88.1642L90.0523 14.2752H92.5093L93.0006 11.5851Z" fill="black"/>
<path d="M101.587 11.6112C101.587 11.6112 99.3555 17.2325 98.3537 20.301H98.3016C98.2337 19.3128 97.4222 11.6112 97.4222 11.6112H93.6717L95.8194 23.2233C95.8716 23.4815 95.8455 23.6374 95.7417 23.8185C95.3271 24.6199 94.6293 25.3962 93.8016 25.9654C93.1293 26.4566 92.3793 26.7668 91.7847 26.9738L92.7673 30.0001C93.4917 29.845 94.9912 29.2499 96.2586 28.0603C97.8884 26.5346 99.3879 24.1806 100.94 20.9733L105.311 11.6104H101.587V11.6112Z" fill="black"/>
</g>
<defs>
<clipPath id="clip0_703_765">
<rect width="105.738" height="30" fill="white"/>
</clipPath>
</defs>
</svg>
