<svg width="62" height="20" viewBox="0 0 62 20" fill="none" xmlns="http://www.w3.org/2000/svg">
<g clip-path="url(#clip0_703_812)">
<path d="M40.112 0.0307617C35.7426 0.0307617 31.838 2.29548 31.838 6.47972C31.838 11.2783 38.763 11.6097 38.763 14.0203C38.763 15.0354 37.5998 15.944 35.6131 15.944C32.7935 15.944 30.6862 14.6744 30.6862 14.6744L29.7845 18.8967C29.7845 18.8967 32.2121 19.9692 35.4351 19.9692C40.2122 19.9692 43.9712 17.5932 43.9712 13.3375C43.9712 8.26694 37.0173 7.94535 37.0173 5.70787C37.0173 4.91274 37.9722 4.04152 39.9533 4.04152C42.1885 4.04152 44.0121 4.96487 44.0121 4.96487L44.8946 0.886776C44.8946 0.886776 42.9103 0.0307617 40.112 0.0307617ZM0.136561 0.338543L0.0307617 0.954103C0.0307617 0.954103 1.86896 1.29052 3.52455 1.9616C5.65627 2.73113 5.80812 3.17911 6.16714 4.57052L10.0793 19.6518H15.3236L23.4028 0.338543H18.1706L12.9792 13.4697L10.8608 2.33911C10.6665 1.06523 9.68245 0.338543 8.47789 0.338543H0.136561ZM25.5068 0.338543L21.4023 19.6518H26.3917L30.4818 0.338543H25.5068ZM53.3345 0.338543C52.1314 0.338543 51.4939 0.982674 51.0261 2.10828L43.7164 19.6518H48.9486L49.9609 16.7278H56.3354L56.9509 19.6518H61.5676L57.54 0.338543H53.3345ZM54.015 5.55638L55.5659 12.8036H51.4109L54.015 5.55638Z" fill="#1434CB"/>
</g>
<defs>
<clipPath id="clip0_703_812">
<rect width="61.5984" height="20" fill="white"/>
</clipPath>
</defs>
</svg>
