<svg width="100" height="25" viewBox="0 0 100 25" fill="none" xmlns="http://www.w3.org/2000/svg">
<path d="M32.0954 9.77619C32.0954 7.99311 30.3615 6.09936 27.361 6.09936C23.9916 6.09936 20.2902 8.57108 19.7245 13.5022C19.1466 18.4825 22.2455 20.696 25.3689 20.696C28.4924 20.696 30.1279 19.4786 31.8003 17.8554C30.3615 16.0477 28.5047 16.8839 28.1481 17.0684C27.7546 17.2651 27.2504 17.5357 26.2174 17.5357C25.0123 17.5357 23.7826 16.9946 23.7826 14.7442C31.5052 13.9818 32.0954 11.5593 32.0954 9.77619ZM28.271 10.0713C28.2218 10.6247 28.0005 11.5716 24.09 12.1003C24.9139 9.17364 26.4879 8.95229 27.2135 8.95229C27.8898 8.95229 28.3202 9.48106 28.271 10.0713ZM15.1869 10.5509C15.1869 10.5509 13.5268 15.7649 13.3915 16.1953C13.3424 15.7526 12.1249 6.39449 12.1249 6.39449C9.29661 6.39449 7.78406 8.41121 6.98475 10.5386C6.98475 10.5386 4.96803 15.7649 4.79587 16.2076C4.78357 15.8018 4.48844 10.6001 4.48844 10.6001C4.31628 7.99311 1.93064 6.40679 0 6.40679L2.33645 20.5853C5.30005 20.573 6.89867 18.5686 7.73488 16.4412C7.73488 16.4412 9.51795 11.8298 9.59174 11.6208C9.60403 11.8175 10.8706 20.5853 10.8706 20.5853C13.8465 20.5853 15.4452 18.7039 16.306 16.6503L20.4747 6.40679C17.5357 6.40679 15.9862 8.41121 15.1869 10.5509ZM43.0152 6.07477C41.183 6.07477 39.7811 7.07083 38.6006 8.53419V8.52189L39.6581 0C37.2233 0 35.2435 2.1151 34.8623 5.26316L33.0177 20.4747C34.4196 20.4747 35.9075 20.0689 36.7068 19.0359C37.4201 19.9582 38.4899 20.696 40.0762 20.696C44.1835 20.696 46.9995 15.9247 46.9995 11.4486C46.9749 7.36596 44.9951 6.07477 43.0152 6.07477ZM42.634 13.3915C42.2036 15.8878 40.8141 17.5849 39.4737 17.5849C38.121 17.5849 37.543 16.9823 37.543 16.9823C37.8013 14.7934 37.9611 13.453 38.453 12.2971C38.9449 11.1412 40.1131 9.29661 41.3305 9.29661C42.5234 9.29661 43.0644 10.8829 42.634 13.3915ZM57.2553 6.40679H54.3901L54.4024 6.25922C54.5991 4.39006 55.0418 3.4063 56.5052 3.24643C57.5012 3.14806 57.9439 2.63158 58.0546 2.06591C58.1407 1.62322 58.4112 0.0860797 58.4112 0.0860797C52.6562 0.0491884 50.8485 2.5332 50.3812 6.32071L50.3689 6.40679H50.3074C49.3729 6.40679 48.3399 7.46434 48.1677 8.80472L48.1063 9.29661H50.0246L48.4137 22.6021L47.9218 24.9877C47.9833 24.9877 48.0571 25 48.1185 25C50.8116 24.9016 52.5332 22.7742 52.9144 19.6877L54.1687 9.29661H55.0664C55.9518 9.29661 56.9848 8.41121 57.1692 6.93556L57.2553 6.40679ZM72.1594 6.16085C68.8515 6.16085 65.728 8.59567 64.7688 12.4201C63.8096 16.2445 65.2607 20.7698 70.1303 20.7698C74.9877 20.7698 77.7914 16.06 77.7914 12.1372C77.7914 8.23905 75.1476 6.16085 72.1594 6.16085ZM73.4998 13.2686C73.3276 15.0025 72.5652 17.634 70.4747 17.634C68.3719 17.634 68.667 14.5598 68.876 13.0964C69.0974 11.5347 69.9705 9.3089 71.8519 9.3089C73.5366 9.3089 73.6965 11.3133 73.4998 13.2686ZM94.1343 10.5509C94.1343 10.5509 92.4742 15.7649 92.3389 16.1953C92.2897 15.7526 91.0723 6.39449 91.0723 6.39449C88.244 6.39449 86.7314 8.41121 85.9321 10.5386C85.9321 10.5386 83.9154 15.7649 83.7432 16.2076C83.7309 15.8018 83.4358 10.6001 83.4358 10.6001C83.2637 7.99311 80.878 6.40679 78.9474 6.40679L81.2715 20.5853C84.2351 20.573 85.8337 18.5686 86.6699 16.4412C86.6699 16.4412 88.453 11.8298 88.5145 11.6208C88.5391 11.8175 89.7934 20.5853 89.7934 20.5853C92.7693 20.5853 94.3679 18.7039 95.2287 16.6503L99.3974 6.40679C96.4707 6.40679 94.9213 8.41121 94.1343 10.5509ZM59.9607 0.0860797L57.5504 19.5278L57.0585 21.9257C57.12 21.9257 57.1938 21.938 57.2553 21.938C59.85 21.9011 61.6945 19.6262 62.0389 16.7609L63.4284 5.60748C63.8465 2.20118 61.8175 0.0860797 59.9607 0.0860797Z" fill="#3A60F8"/>
</svg>
