<svg width="66" height="30" viewBox="0 0 66 30" fill="none" xmlns="http://www.w3.org/2000/svg">
<path d="M39.3056 13.01H37.6729C37.6394 12.8764 37.6144 12.7214 37.5977 12.5455C37.5645 12.2031 37.5645 11.8582 37.5977 11.5158C37.6144 11.3403 37.6394 11.1854 37.6729 11.051H41.7419V23.9357C41.5382 23.9711 41.3328 23.9961 41.1266 24.0106C40.9217 24.0263 40.7163 24.0346 40.5109 24.0355C40.314 24.0342 40.1173 24.0259 39.9211 24.0106C39.7149 23.996 39.5096 23.9709 39.306 23.9353V13.0095V13.0098L39.3056 13.01ZM53.4707 16.2503C53.4707 15.7813 53.4079 15.3335 53.2826 14.9062C53.1569 14.4795 52.9721 14.1071 52.73 13.7887C52.4868 13.4709 52.1772 13.2153 51.8004 13.0229C51.4238 12.8303 50.9758 12.7339 50.4567 12.7339C49.4354 12.7339 48.6525 13.0441 48.1085 13.6634C47.5643 14.2828 47.2338 15.145 47.1164 16.2503H53.4709H53.4707ZM47.0914 18.1087C47.1249 19.5152 47.4891 20.5452 48.1839 21.1978C48.8785 21.8507 49.9043 22.1777 51.2606 22.1777C52.449 22.1777 53.5793 21.9681 54.651 21.5496C54.7846 21.8007 54.8933 22.1063 54.9772 22.4663C55.0594 22.8168 55.1098 23.174 55.1278 23.5336C54.5756 23.7686 53.9682 23.9437 53.3072 24.0612C52.6454 24.178 51.913 24.237 51.1098 24.237C49.9373 24.237 48.9325 24.0732 48.0958 23.747C47.2584 23.4202 46.5677 22.9597 46.0235 22.3656C45.4795 21.7714 45.0816 21.068 44.8305 20.2558C44.5795 19.4439 44.4536 18.5522 44.4536 17.581C44.4536 16.6267 44.5749 15.7349 44.8178 14.9059C45.0601 14.0776 45.4335 13.3575 45.9352 12.7463C46.4378 12.1349 47.0697 11.6496 47.8317 11.2896C48.5932 10.9296 49.4931 10.7493 50.5317 10.7493C51.419 10.7493 52.1975 10.9002 52.8675 11.2015C53.5369 11.5028 54.098 11.9173 54.5502 12.4448C55.0022 12.9723 55.3454 13.6002 55.5799 14.3282C55.8141 15.0569 55.9318 15.8479 55.9318 16.702C55.9318 16.9365 55.9229 17.1833 55.9062 17.4427C55.8925 17.6648 55.8758 17.8866 55.8562 18.1082H47.0908L47.0911 18.1086L47.0914 18.1087ZM58.6708 11.051C58.8456 11.0193 59.0216 10.9942 59.1983 10.9758C59.3653 10.9594 59.5415 10.9509 59.7257 10.9509C59.9099 10.9509 60.0938 10.9594 60.2783 10.9758C60.4623 10.9928 60.6299 11.018 60.7807 11.051C60.8304 11.3023 60.8807 11.6333 60.9308 12.0431C60.981 12.4534 61.0065 12.8006 61.0065 13.0854C61.358 12.5163 61.8227 12.022 62.4001 11.6033C62.9779 11.185 63.7187 10.9754 64.6227 10.9754C64.7566 10.9754 64.8947 10.9799 65.0371 10.9883C65.159 10.9948 65.2808 11.0071 65.4013 11.0256C65.4346 11.1765 65.4603 11.3358 65.4768 11.503C65.4933 11.6703 65.5017 11.8462 65.5017 12.0303C65.5017 12.2314 65.4892 12.4408 65.4642 12.658C65.44 12.868 65.4108 13.0773 65.3764 13.2858C65.2407 13.2524 65.1015 13.2356 64.9618 13.2356H64.6225C64.1705 13.2356 63.7393 13.2985 63.3291 13.4239C62.9185 13.5497 62.5504 13.7716 62.2239 14.0894C61.8977 14.4077 61.6379 14.8432 61.4458 15.3958C61.2528 15.9483 61.1568 16.66 61.1568 17.5305V23.9353C60.9531 23.9707 60.7476 23.9959 60.5413 24.0105C60.3156 24.0272 60.1103 24.0354 59.9262 24.0354C59.7209 24.0346 59.5156 24.0263 59.3108 24.0105C59.0962 23.9949 58.8825 23.9698 58.6702 23.9354V11.0511L58.6708 11.051ZM41.0437 4.17118C41.0437 4.4718 40.9894 4.76995 40.8834 5.05127C40.602 5.15724 40.3038 5.21156 40.0031 5.21162H39.9994C39.6987 5.21166 39.4005 5.15738 39.1191 5.0514C39.0129 4.77002 38.9586 4.47177 38.9586 4.17105V4.16712C38.9586 3.85729 39.0155 3.56057 39.1184 3.28677C39.3999 3.18064 39.6982 3.12636 39.999 3.12655H40.0024C40.3124 3.12655 40.609 3.18341 40.8828 3.28677C40.9889 3.56815 41.0432 3.86641 41.043 4.16712V4.17105H41.0434L41.0437 4.17118ZM44.1126 3.47424H41.679L43.3997 1.75349C43.1291 1.37351 42.7969 1.04143 42.4169 0.770961L40.696 2.4917V0.0580349C40.4672 0.019544 40.2355 0.00013226 40.0035 0H39.999C39.763 0 39.5317 0.0201747 39.3064 0.0580349V2.4917L37.5852 0.77083C37.3956 0.905748 37.2177 1.05632 37.0533 1.22096L37.0525 1.22175C36.8881 1.38627 36.7377 1.56417 36.6027 1.75362L38.324 3.47424H35.89C35.89 3.47424 35.8321 3.93144 35.8321 4.16777V4.17065C35.8321 4.40699 35.8521 4.6386 35.8901 4.86406H38.3241L36.6026 6.58454C36.8734 6.96447 37.2056 7.29662 37.5855 7.56734L39.3065 5.84672V8.28052C39.5316 8.31825 39.7624 8.33817 39.9983 8.33843H40.0041C40.2359 8.33821 40.4673 8.31885 40.6959 8.28052V5.84672L42.417 7.56773C42.6066 7.43269 42.7846 7.28213 42.9493 7.1176H42.9496C43.114 6.9529 43.2644 6.77487 43.3993 6.58533L41.6786 4.86419H44.1127C44.1504 4.63886 44.1703 4.40803 44.1703 4.17223V4.1662C44.1703 3.93432 44.151 3.7031 44.1127 3.4745V3.47424H44.1126ZM0 23.5842L6.78131 13.0352H0.803581C0.753537 12.7339 0.728515 12.3993 0.728515 12.0308C0.728515 11.6793 0.75393 11.3524 0.804105 11.0509H10.4735L10.5993 11.378L3.76782 21.9516H10.1721C10.2223 22.2866 10.2476 22.6296 10.2476 22.981C10.2476 23.3164 10.2224 23.6344 10.1722 23.9357H0.125764L0 23.5838V23.5842ZM19.565 17.8825C19.3138 17.8493 18.9956 17.8162 18.6106 17.7823C18.2255 17.7491 17.899 17.7321 17.6315 17.7321C16.5931 17.7321 15.802 17.9247 15.2582 18.3098C14.7136 18.6952 14.4421 19.281 14.4421 20.0679C14.4421 20.5702 14.5338 20.9637 14.7181 21.2483C14.902 21.5333 15.1324 21.7505 15.4087 21.9013C15.6852 22.052 15.9904 22.1442 16.3251 22.1777C16.6598 22.2111 16.9782 22.2278 17.2795 22.2278C17.6646 22.2278 18.0622 22.2068 18.4725 22.1649C18.8826 22.1234 19.2468 22.0603 19.5651 21.9766V17.8825H19.565ZM19.565 15.4466C19.565 14.4583 19.3138 13.7718 18.8117 13.3867C18.3092 13.0015 17.5809 12.809 16.6266 12.809C16.04 12.809 15.4921 12.8553 14.9815 12.9473C14.4763 13.038 13.9771 13.1595 13.4868 13.3111C13.1684 12.7585 13.0099 12.0976 13.0099 11.3269C13.5785 11.143 14.2062 11.0007 14.8931 10.9002C15.5796 10.7996 16.2409 10.7493 16.8774 10.7493C18.5517 10.7493 19.8241 11.1305 20.6949 11.8923C21.5653 12.6548 22.001 13.8727 22.001 15.5468V23.6091C21.4146 23.743 20.7033 23.881 19.8662 24.0234C19.0197 24.1664 18.1628 24.2378 17.3044 24.237C16.484 24.237 15.7428 24.1619 15.0817 24.0111C14.4202 23.8601 13.8592 23.6179 13.3989 23.2825C12.938 22.9479 12.5827 22.5208 12.3312 22.0019C12.0802 21.4827 11.9545 20.855 11.9545 20.1181C11.9545 19.3983 12.101 18.7661 12.3941 18.2217C12.682 17.6837 13.0904 17.2196 13.5872 16.8655C14.0895 16.506 14.6671 16.2377 15.3202 16.0622C15.9734 15.8862 16.6596 15.7982 17.3796 15.7982C17.9154 15.7982 18.3549 15.811 18.6983 15.8362C19.0412 15.8611 19.3302 15.8904 19.5647 15.924V15.4467L19.565 15.4466ZM27.1999 21.8255C27.517 21.9426 27.8453 22.0268 28.1796 22.0767C28.5144 22.1272 28.9493 22.1522 29.4857 22.1522C30.0883 22.1522 30.6406 22.0562 31.1429 21.8636C31.6454 21.6714 32.0764 21.3739 32.4364 20.9718C32.7964 20.5702 33.081 20.064 33.2903 19.4522C33.4995 18.8414 33.6045 18.1175 33.6045 17.2799C33.6045 15.9405 33.3571 14.8772 32.8635 14.0902C32.3692 13.3034 31.5613 12.9098 30.4399 12.9098C30.0214 12.9098 29.6192 12.985 29.2347 13.1359C28.849 13.2866 28.506 13.5127 28.2046 13.814C27.9033 14.1153 27.6605 14.4965 27.4765 14.9569C27.2917 15.4178 27.2 15.9656 27.2 16.6021V21.8259V21.8256L27.1999 21.8255ZM24.7134 11.0507C24.8838 11.0172 25.0554 10.9922 25.2283 10.9755C25.4079 10.9589 25.5881 10.9506 25.7684 10.9507C25.9353 10.9507 26.111 10.9593 26.2956 10.9755C26.4795 10.9926 26.6553 11.0179 26.823 11.0509C26.8395 11.0849 26.8607 11.1891 26.8859 11.365C26.9108 11.541 26.9359 11.7292 26.9612 11.9299C26.9864 12.131 27.0114 12.324 27.0365 12.5076C27.0617 12.6921 27.0743 12.8093 27.0743 12.8595C27.2413 12.5919 27.4424 12.3321 27.6769 12.081C27.9114 11.8297 28.1921 11.6037 28.5186 11.403C28.8451 11.2019 29.2132 11.043 29.6236 10.9256C30.0337 10.8085 30.49 10.7494 30.9924 10.7494C31.7456 10.7494 32.4448 10.8752 33.0897 11.1265C33.734 11.378 34.2862 11.7667 34.7469 12.2942C35.2072 12.8218 35.567 13.4916 35.8268 14.3034C36.0862 15.1162 36.2159 16.0746 36.2159 17.1795C36.2159 19.3896 35.6172 21.1188 34.4198 22.366C33.2224 23.6135 31.5276 24.237 29.3342 24.237C28.9657 24.237 28.5892 24.2118 28.2041 24.1617C27.8186 24.1112 27.4841 24.0441 27.1993 23.9608V29.8631C26.9871 29.8976 26.7735 29.9228 26.5592 29.9384C26.3329 29.9548 26.1276 29.9633 25.9434 29.9633C25.7382 29.9624 25.533 29.9541 25.3283 29.9384C25.122 29.9238 24.9167 29.8987 24.7131 29.8631V11.0509L24.7134 11.0507Z" fill="#FF4A00"/>
</svg>
