<svg width="72" height="72" viewBox="0 0 72 72" fill="none" xmlns="http://www.w3.org/2000/svg">
<g clip-path="url(#clip0_618_258)">
<path d="M14.0002 48C17.9142 48 21.2662 50.27 22.9102 53.544L29.8642 50.066C26.9762 44.116 20.8922 40 13.8322 40C11.3154 40.0006 8.8275 40.5371 6.53418 41.574L9.87018 48.914C11.1653 48.3166 12.5739 48.0049 14.0002 48ZM58.0002 48C60.9342 48 63.5442 49.286 65.3762 51.296L71.1702 46.026C69.5024 44.132 67.4503 42.6149 65.1505 41.5759C62.8506 40.5368 60.3558 39.9996 57.8322 40C50.6802 40 44.5282 44.222 41.6862 50.3L48.9822 53.744C50.5862 50.36 54.0062 48 58.0002 48Z" fill="#EA596E"/>
<path d="M14 44C12.1615 44 10.341 44.3621 8.64243 45.0657C6.94387 45.7693 5.40053 46.8005 4.10051 48.1005C2.80049 49.4005 1.76925 50.9439 1.06569 52.6424C0.362121 54.341 0 56.1615 0 58C0 59.8385 0.362121 61.659 1.06569 63.3576C1.76925 65.0561 2.80049 66.5995 4.10051 67.8995C5.40053 69.1995 6.94387 70.2307 8.64243 70.9343C10.341 71.6379 12.1615 72 14 72C17.713 72 21.274 70.525 23.8995 67.8995C26.525 65.274 28 61.713 28 58C28 54.287 26.525 50.726 23.8995 48.1005C21.274 45.475 17.713 44 14 44ZM14 68C11.3478 68 8.8043 66.9464 6.92893 65.0711C5.05357 63.1957 4 60.6522 4 58C4 55.3478 5.05357 52.8043 6.92893 50.9289C8.8043 49.0536 11.3478 48 14 48C16.6522 48 19.1957 49.0536 21.0711 50.9289C22.9464 52.8043 24 55.3478 24 58C24 60.6522 22.9464 63.1957 21.0711 65.0711C19.1957 66.9464 16.6522 68 14 68ZM58 44C54.2867 44.0003 50.7256 45.4756 48.1001 48.1015C45.4746 50.7274 43.9997 54.2887 44 58.002C44.0003 61.7153 45.4756 65.2764 48.1015 67.9019C50.7274 70.5274 54.2887 72.0023 58.002 72.002C59.8406 72.0019 61.6612 71.6396 63.3599 70.9359C65.0585 70.2321 66.6019 69.2007 67.9019 67.9005C69.2019 66.6003 70.2331 65.0568 70.9366 63.358C71.6401 61.6593 72.0021 59.8386 72.002 58C72.0019 56.1614 71.6396 54.3408 70.9359 52.6421C70.2321 50.9435 69.2007 49.4001 67.9005 48.1001C66.6003 46.8001 65.0568 45.7689 63.358 45.0654C61.6593 44.3619 59.8386 43.9999 58 44ZM58 68C55.3478 68 52.8043 66.9464 50.9289 65.0711C49.0536 63.1957 48 60.6522 48 58C48 55.3478 49.0536 52.8043 50.9289 50.9289C52.8043 49.0536 55.3478 48 58 48C60.6522 48 63.1957 49.0536 65.0711 50.9289C66.9464 52.8043 68 55.3478 68 58C68 60.6522 66.9464 63.1957 65.0711 65.0711C63.1957 66.9464 60.6522 68 58 68Z" fill="#292F33"/>
<path d="M59.968 57.844C59.955 57.7096 59.9282 57.5769 59.888 57.448C59.8529 57.3197 59.8053 57.1951 59.746 57.076C59.72 57.028 59.716 56.972 59.688 56.926L45.688 34.926C45.547 34.7043 45.3637 34.5125 45.1486 34.3616C44.9335 34.2107 44.6907 34.1037 44.4342 34.0467C44.1777 33.9897 43.9125 33.9837 43.6537 34.0293C43.3949 34.0748 43.1476 34.1709 42.926 34.312C42.6467 34.4943 42.4184 34.7448 42.2627 35.0398C42.107 35.3347 42.029 35.6645 42.036 35.998H24C23.4696 35.998 22.9609 36.2087 22.5858 36.5838C22.2107 36.9589 22 37.4676 22 37.998C22 38.5284 22.2107 39.0371 22.5858 39.4122C22.9609 39.7873 23.4696 39.998 24 39.998H44C44.054 39.998 44.1 39.97 44.154 39.966L54.356 56H36C35.4696 56 34.9609 56.2107 34.5858 56.5858C34.2107 56.9609 34 57.4696 34 58C34 58.5304 34.2107 59.0391 34.5858 59.4142C34.9609 59.7893 35.4696 60 36 60H58.002C58.3086 59.9932 58.6095 59.9166 58.882 59.776C58.944 59.742 59.014 59.728 59.076 59.688C59.136 59.648 59.172 59.586 59.226 59.544C59.4326 59.3828 59.6035 59.1806 59.728 58.95C59.788 58.838 59.838 58.73 59.878 58.606C59.9186 58.4752 59.9455 58.3404 59.958 58.204C59.966 58.132 60 58.072 60 58C60 57.946 59.972 57.898 59.968 57.844Z" fill="#DD2E44"/>
<path d="M43.1618 32L37.3638 48.234L25.5058 34.684C25.3339 34.483 25.1237 34.3182 24.8876 34.199C24.6515 34.0798 24.3941 34.0086 24.1303 33.9896C23.8665 33.9706 23.6015 34.004 23.3507 34.0881C23.0999 34.1722 22.8683 34.3051 22.6692 34.4793C22.4702 34.6535 22.3077 34.8654 22.1911 35.1029C22.0745 35.3403 22.0062 35.5985 21.99 35.8625C21.9739 36.1265 22.0103 36.3911 22.0971 36.6409C22.184 36.8907 22.3195 37.1209 22.4958 37.318L35.8238 52.548L34.1158 57.328C33.9376 57.8277 33.9652 58.3777 34.1925 58.857C34.4198 59.3364 34.8282 59.7058 35.3278 59.884C35.8275 60.0622 36.3775 60.0347 36.8569 59.8074C37.3362 59.5801 37.7056 59.1717 37.8838 58.672L47.4098 32H43.1618Z" fill="#DD2E44"/>
<path d="M13.9999 60.0001C13.6593 59.9995 13.3244 59.912 13.0271 59.7458C12.7298 59.5797 12.4798 59.3403 12.3009 59.0504C12.1221 58.7606 12.0202 58.4298 12.0049 58.0896C11.9897 57.7493 12.0616 57.4108 12.2139 57.1061L18.3379 44.8941C18.3719 44.8381 21.9999 39.3021 21.9999 34.0001C21.9999 27.5161 17.4139 25.9141 17.3679 25.8981C17.1155 25.8176 16.8817 25.6877 16.6799 25.5161C16.4782 25.3445 16.3125 25.1345 16.1926 24.8984C16.0726 24.6622 16.0008 24.4046 15.9812 24.1404C15.9616 23.8763 15.9947 23.6109 16.0786 23.3596C16.1624 23.1084 16.2953 22.8763 16.4696 22.6768C16.6439 22.4773 16.856 22.3145 17.0937 22.1977C17.3315 22.0809 17.59 22.0124 17.8544 21.9964C18.1188 21.9803 18.3837 22.0169 18.6339 22.1041C18.9339 22.2041 25.9999 24.6661 25.9999 34.0001C25.9999 40.1361 22.3279 46.0841 21.7379 46.9941L15.7899 58.8921C15.6246 59.2253 15.3693 59.5057 15.053 59.7015C14.7367 59.8973 14.3719 60.0007 13.9999 60.0001Z" fill="#DD2E44"/>
<path d="M29.2239 27.326C29.1133 27.3265 29.0029 27.3171 28.8939 27.298L16.8939 25.298C16.3706 25.2107 15.9035 24.9192 15.5951 24.4874C15.2868 24.0557 15.1627 23.5192 15.2499 22.996C15.3372 22.4727 15.6287 22.0055 16.0604 21.6972C16.4921 21.3889 17.0286 21.2647 17.5519 21.352L29.5519 23.352C30.0485 23.4328 30.4963 23.6978 30.8062 24.0942C31.116 24.4905 31.2651 24.9891 31.2238 25.4905C31.1824 25.9919 30.9535 26.4593 30.5829 26.7994C30.2122 27.1396 29.727 27.3276 29.2239 27.326ZM52.7659 34C52.7064 33.9999 52.6469 33.9959 52.5879 33.988L41.2439 32.572C40.8749 32.5413 40.5325 32.3673 40.2903 32.0873C40.048 31.8072 39.9251 31.4434 39.9478 31.0738C39.9706 30.7042 40.1372 30.3582 40.412 30.11C40.6868 29.8618 41.0479 29.7311 41.4179 29.746C41.4999 29.746 49.5519 29.71 53.3959 27.148C53.6422 26.9849 53.933 26.9023 54.2282 26.9116C54.5234 26.9209 54.8084 27.0217 55.0439 27.2C55.2777 27.3803 55.4497 27.6288 55.5361 27.9111C55.6224 28.1935 55.6189 28.4957 55.5259 28.776L54.1079 33.03C54.0151 33.3125 53.8353 33.5585 53.5943 33.7327C53.3533 33.9069 53.0633 34.0005 52.7659 34Z" fill="#292F33"/>
<path d="M40 58C40 59.0609 39.5786 60.0783 38.8284 60.8284C38.0783 61.5786 37.0609 62 36 62C34.9391 62 33.9217 61.5786 33.1716 60.8284C32.4214 60.0783 32 59.0609 32 58C32 56.9391 32.4214 55.9217 33.1716 55.1716C33.9217 54.4214 34.9391 54 36 54C37.0609 54 38.0783 54.4214 38.8284 55.1716C39.5786 55.9217 40 56.9391 40 58Z" fill="#66757F"/>
</g>
<defs>
<clipPath id="clip0_618_258">
<rect width="72" height="72" fill="white"/>
</clipPath>
</defs>
</svg>
