<svg width="64" height="64" viewBox="0 0 64 64" fill="none" xmlns="http://www.w3.org/2000/svg">
<path d="M60.4444 51.7263C59.7031 50.0143 58.8516 48.1565 56.8889 48.1565H55.1111C57.0738 48.1565 58.6667 46.5583 58.6667 44.5868V14.2365C58.6676 13.7687 58.5764 13.3052 58.3982 12.8726C58.22 12.44 57.9584 12.0467 57.6282 11.7153C57.298 11.3838 56.9058 11.1206 56.4739 10.9407C56.0421 10.7608 55.579 10.6677 55.1111 10.6667H8.88889C6.92622 10.6667 5.33333 12.265 5.33333 14.2365V44.5868C5.33333 46.5583 6.92622 48.1565 8.88889 48.1565H7.11111C5.14844 48.1565 4.14756 49.9414 3.55556 51.7263L0 60.4285C0 62.4019 1.59289 64.0001 3.55556 64.0001H60.4444C62.4071 64.0001 64 62.4019 64 60.4303L60.4444 51.7263Z" fill="#CCD6DD"/>
<path d="M0.0141602 60.5779L0.0248268 60.6792L0.327049 61.9094C0.607653 62.5311 1.06131 63.0588 1.63381 63.4296C2.20631 63.8003 2.87344 63.9984 3.55549 64.0001H60.4444C61.3623 63.9971 62.2434 63.6392 62.9035 63.0014C63.5635 62.3635 63.9513 61.4951 63.9857 60.5779H0.0141602Z" fill="#9AAAB4"/>
<path d="M55.1109 42.8001C55.1109 43.7867 54.3162 44.5849 53.3331 44.5849H10.6664C9.68512 44.5849 8.88867 43.7867 8.88867 42.8001V16.0232C8.88867 15.0365 9.68512 14.2383 10.6664 14.2383H53.3331C54.3162 14.2383 55.1109 15.0383 55.1109 16.0232V42.8001Z" fill="#5DADEC"/>
<path d="M58.4997 55.1857L57.1486 51.3191C56.7237 50.5013 56.0197 49.8311 55.0366 49.8311H9.08464C8.1033 49.8311 7.47397 50.5564 7.02953 51.6728L5.80641 55.1875C5.41708 56.2471 6.60286 56.9724 7.58419 56.9724H21.0562C21.0562 56.9724 22.722 56.8888 23.0171 55.8915C23.3584 54.7395 23.7549 53.0044 23.8402 52.6986C23.9717 52.2293 24.53 51.7546 25.362 51.7546H40.6117C41.5006 51.7546 41.938 52.2044 42.0535 52.7608C42.1282 53.1235 42.6082 54.7893 42.8322 55.9288C43.0295 56.9439 45.0029 56.9706 45.0029 56.9706H56.7255C57.7051 56.9706 58.8891 56.1333 58.4997 55.1857Z" fill="#AEBBC1"/>
<path d="M39.7777 58.8677H25.9448C25.2781 58.8677 24.9883 58.2579 25.0843 57.6677C25.1803 57.0792 25.7226 54.4801 25.7652 54.1779C25.8061 53.8739 26.2523 53.5112 26.6968 53.5112H39.1679C39.6959 53.5112 40.039 53.801 40.1457 54.3806C40.2506 54.9619 40.6826 57.2979 40.7163 57.8312C40.7501 58.3663 40.4159 58.8677 39.7777 58.8677Z" fill="#9AAAB4"/>
</svg>
