<svg width="54" height="54" viewBox="0 0 54 54" fill="none" xmlns="http://www.w3.org/2000/svg">
<path d="M0 15C0 15 0 9 6 9H48C48 9 54 9 54 15V42C54 42 54 48 48 48H6C6 48 0 48 0 42V15Z" fill="#31373D"/>
<path d="M31.5 43.5C39.7843 43.5 46.5 36.7843 46.5 28.5C46.5 20.2157 39.7843 13.5 31.5 13.5C23.2157 13.5 16.5 20.2157 16.5 28.5C16.5 36.7843 23.2157 43.5 31.5 43.5Z" fill="#CCD6DD"/>
<path d="M31.5 40.5C38.1274 40.5 43.5 35.1274 43.5 28.5C43.5 21.8726 38.1274 16.5 31.5 16.5C24.8726 16.5 19.5 21.8726 19.5 28.5C19.5 35.1274 24.8726 40.5 31.5 40.5Z" fill="#31373D"/>
<path d="M31.5 36C35.6421 36 39 32.6421 39 28.5C39 24.3579 35.6421 21 31.5 21C27.3579 21 24 24.3579 24 28.5C24 32.6421 27.3579 36 31.5 36Z" fill="#3B88C3"/>
<path d="M48.75 16.5C49.9926 16.5 51 15.4926 51 14.25C51 13.0074 49.9926 12 48.75 12C47.5074 12 46.5 13.0074 46.5 14.25C46.5 15.4926 47.5074 16.5 48.75 16.5Z" fill="white"/>
<path d="M24 13.5L28.5 4.5L19.5 7.5L13.5 0L10.5 7.5L1.5 6L7.5 15L0 21H9L6 30L15 25.5L24 33L22.5 21L31.5 19.5L24 13.5Z" fill="#FFAC33"/>
<path d="M15 21L10.5 24L12 19.5L7.5 18L12 15L7.5 10.5H13.5L15 6L18 10.5L22.5 9L19.5 13.5L24 18L19.5 19.5L21 25.5L15 21Z" fill="white"/>
</svg>
